<svg width="219" height="73" viewBox="0 0 219 73" fill="none" xmlns="http://www.w3.org/2000/svg">
<path d="M112.545 29.6258H96.4928C94.6169 29.6258 93.2953 29.9881 92.5279 30.7129C91.8031 31.4377 91.4407 32.6954 91.4407 34.486V40.8172H108.132L107.492 48.7471H91.4407V67.229H82.5515V30.9687C82.5515 27.6006 83.2763 25.2131 84.7258 23.8062C86.218 22.3993 88.7547 21.6958 92.336 21.6958H112.545V29.6258Z" fill="url(#paint0_linear_241_341)"/>
<path d="M140.193 50.7296V47.4042C140.193 44.2492 139.724 41.8404 138.786 40.1777C137.891 38.515 135.994 37.6836 133.095 37.6836C128.405 37.6836 126.06 40.8385 126.06 47.1484V50.4738C126.06 57.2526 128.405 60.642 133.095 60.642C136.122 60.642 138.104 59.5122 139.042 57.2526C139.81 55.462 140.193 53.2877 140.193 50.7296ZM148.507 48.8111C148.507 56.6984 147.015 61.985 144.03 64.671C141.515 66.9732 137.87 68.1243 133.095 68.1243C126.998 68.1243 122.884 66.3337 120.752 62.7524C118.748 59.4696 117.747 54.8225 117.747 48.8111C117.747 43.1834 118.748 38.7708 120.752 35.5732C122.969 31.9919 126.998 30.2013 132.839 30.2013C138.723 30.2013 142.794 31.7788 145.054 34.9337C147.356 38.046 148.507 42.6718 148.507 48.8111Z" fill="url(#paint1_linear_241_341)"/>
<path d="M175.716 50.7296V47.4042C175.716 44.2492 175.247 41.8404 174.309 40.1777C173.414 38.515 171.517 37.6836 168.618 37.6836C163.928 37.6836 161.583 40.8385 161.583 47.1484V50.4738C161.583 57.2526 163.928 60.642 168.618 60.642C171.645 60.642 173.627 59.5122 174.565 57.2526C175.333 55.462 175.716 53.2877 175.716 50.7296ZM184.03 48.8111C184.03 56.6984 182.538 61.985 179.553 64.671C177.038 66.9732 173.393 68.1243 168.618 68.1243C162.521 68.1243 158.407 66.3337 156.275 62.7524C154.271 59.4696 153.269 54.8225 153.269 48.8111C153.269 43.1834 154.271 38.7708 156.275 35.5732C158.492 31.9919 162.521 30.2013 168.362 30.2013C174.245 30.2013 178.317 31.7788 180.577 34.9337C182.879 38.046 184.03 42.6718 184.03 48.8111Z" fill="url(#paint2_linear_241_341)"/>
<path d="M218.018 67.229H212.454L209.896 62.8164L201.007 67.6127C196.061 67.6127 192.736 65.8221 191.031 62.2408C190.178 60.4928 189.581 58.6169 189.24 56.6131C188.941 54.5667 188.792 52.4563 188.792 50.282C188.792 48.065 188.814 46.4449 188.856 45.4217C188.899 44.3558 189.005 43.1408 189.176 41.7765C189.346 40.3695 189.581 39.1971 189.879 38.2592C190.221 37.3212 190.689 36.3619 191.286 35.3814C191.883 34.3581 192.608 33.5481 193.461 32.9512C195.379 31.6296 197.873 30.9687 200.943 30.9687H209.704V19.1378L218.018 0.271133V67.229ZM209.704 55.5899V38.451H203.373C201.028 38.451 199.387 39.3463 198.449 41.137C197.554 42.9276 197.106 45.6135 197.106 49.1948C197.106 52.7334 197.532 55.2275 198.385 56.6771C199.28 58.1266 200.943 58.8514 203.373 58.8514L209.704 55.5899Z" fill="url(#paint3_linear_241_341)"/>
<path d="M34.7895 23.2351V53.1642C34.7895 58.1098 33.1055 62.0108 29.7374 64.8673C26.4119 67.7237 22.2977 69.152 17.3948 69.152C12.4919 69.152 8.3564 67.7237 4.98831 64.8673C1.66285 62.0108 0.000123765 58.1098 0.000123765 53.1642V0.271149L8.88933 23.2351V52.8445C8.88933 55.6583 9.65674 57.7687 11.1916 59.1756C12.769 60.5399 14.8368 61.222 17.3948 61.222C19.9529 61.222 22.0206 60.5399 23.5981 59.1756C25.1755 57.7687 25.9643 55.6583 25.9643 52.8445V23.2351H34.7895Z" fill="url(#paint4_linear_241_341)"/>
<path d="M70.7007 42.5923C70.7007 52.0997 68.2493 58.1751 63.3463 60.8184C61.3425 61.8842 58.8911 62.4171 55.992 62.4171L49.8527 58.4522V72.7133H41.539V25.5813H57.9105C62.856 25.5813 66.2241 26.9882 68.0148 29.8021C69.8054 32.5733 70.7007 36.8367 70.7007 42.5923ZM62.3871 43.8713C62.3871 36.6662 60.0848 33.0636 55.4804 33.0636H49.8527V50.0106L55.4804 53.6558C57.9531 53.6558 59.7224 52.8884 60.7883 51.3536C61.8542 49.7761 62.3871 47.2821 62.3871 43.8713Z" fill="url(#paint5_linear_241_341)"/>
<defs>
<linearGradient id="paint0_linear_241_341" x1="82.5515" y1="-3.89529" x2="228.705" y2="41.3132" gradientUnits="userSpaceOnUse">
<stop stop-color="#53E88B"/>
<stop offset="1" stop-color="#15BE77"/>
</linearGradient>
<linearGradient id="paint1_linear_241_341" x1="82.5515" y1="-3.89529" x2="228.705" y2="41.3132" gradientUnits="userSpaceOnUse">
<stop stop-color="#53E88B"/>
<stop offset="1" stop-color="#15BE77"/>
</linearGradient>
<linearGradient id="paint2_linear_241_341" x1="82.5515" y1="-3.89529" x2="228.705" y2="41.3132" gradientUnits="userSpaceOnUse">
<stop stop-color="#53E88B"/>
<stop offset="1" stop-color="#15BE77"/>
</linearGradient>
<linearGradient id="paint3_linear_241_341" x1="82.5515" y1="-3.89529" x2="228.705" y2="41.3132" gradientUnits="userSpaceOnUse">
<stop stop-color="#53E88B"/>
<stop offset="1" stop-color="#15BE77"/>
</linearGradient>
<linearGradient id="paint4_linear_241_341" x1="6.09349e-05" y1="-4.17705" x2="81.7083" y2="8.17811" gradientUnits="userSpaceOnUse">
<stop stop-color="#53E88B"/>
<stop offset="1" stop-color="#15BE77"/>
</linearGradient>
<linearGradient id="paint5_linear_241_341" x1="6.09349e-05" y1="-4.17705" x2="81.7083" y2="8.17811" gradientUnits="userSpaceOnUse">
<stop stop-color="#53E88B"/>
<stop offset="1" stop-color="#15BE77"/>
</linearGradient>
</defs>
</svg>
