<svg width="220" height="14" viewBox="0 0 220 14" fill="none" xmlns="http://www.w3.org/2000/svg">
<path d="M0.857666 11.0089H2.6828V6.72894H6.86931V5.19898H2.6828V2.46373H7.31206V0.933763H0.857666V11.0089Z" fill="#09051C"/>
<path d="M11.0029 11.1614C12.1885 11.1614 12.8969 10.6055 13.2216 9.9709H13.2807V11.0089H14.9926V5.95166C14.9926 3.95434 13.3643 3.35416 11.9229 3.35416C10.3339 3.35416 9.11383 4.06257 8.72027 5.44003L10.3831 5.67617C10.5602 5.15962 11.062 4.71687 11.9327 4.71687C12.7592 4.71687 13.2118 5.13994 13.2118 5.88279V5.91231C13.2118 6.42394 12.6756 6.44853 11.3424 6.5912C9.87636 6.74862 8.4743 7.18646 8.4743 8.88861C8.4743 10.3743 9.56151 11.1614 11.0029 11.1614ZM11.4654 9.85283C10.7225 9.85283 10.1912 9.51339 10.1912 8.85909C10.1912 8.17528 10.7865 7.88995 11.5834 7.7768C12.0508 7.71285 12.9855 7.59478 13.2167 7.40784V8.29827C13.2167 9.1395 12.5378 9.85283 11.4654 9.85283Z" fill="#09051C"/>
<path d="M22.7556 5.44987C22.5097 4.1708 21.4864 3.35416 19.7154 3.35416C17.8952 3.35416 16.6554 4.24951 16.6604 5.64665C16.6554 6.74862 17.3343 7.47671 18.7856 7.7768L20.0745 8.04737C20.7681 8.19988 21.0928 8.48029 21.0928 8.90829C21.0928 9.42484 20.532 9.81348 19.6859 9.81348C18.8692 9.81348 18.3379 9.45927 18.1854 8.78038L16.4488 8.94764C16.6702 10.3349 17.8361 11.1565 19.6908 11.1565C21.5799 11.1565 22.9131 10.1775 22.918 8.74594C22.9131 7.66857 22.2194 7.00936 20.7927 6.69943L19.5038 6.42393C18.7364 6.25175 18.4314 5.9861 18.4363 5.54826C18.4314 5.03663 18.9971 4.68243 19.74 4.68243C20.5615 4.68243 20.9944 5.1301 21.1322 5.62697L22.7556 5.44987Z" fill="#09051C"/>
<path d="M28.1597 3.45255H26.6691V1.64217H24.8882V3.45255H23.8158V4.83001H24.8882V9.03127C24.8784 10.453 25.9115 11.1516 27.2496 11.1122C27.7563 11.0975 28.1056 10.9991 28.2975 10.9351L27.9974 9.5429C27.899 9.5675 27.6973 9.61178 27.4759 9.61178C27.0282 9.61178 26.6691 9.45435 26.6691 8.7361V4.83001H28.1597V3.45255Z" fill="#09051C"/>
<path d="M36.0961 11.1565C36.9865 11.1565 37.9754 10.881 38.6788 10.271L39.3233 11.0089H41.2518L39.7759 9.28217C40.2678 8.62296 40.6516 7.64397 40.6516 6.26159H39.1216C39.1216 6.92572 38.9642 7.52099 38.6985 8.01786L36.8586 5.86311L37.4932 5.39576C38.3345 4.78574 38.8314 4.05273 38.8314 3.09835C38.8314 1.86847 37.8622 0.810776 36.2732 0.810776C34.6793 0.810776 33.6314 1.86847 33.6314 3.30005C33.6314 4.20032 34.084 4.93332 34.6645 5.65157C33.5429 6.42394 32.7754 7.1471 32.7754 8.33271C32.7754 9.93647 34.0348 11.1565 36.0961 11.1565ZM37.7097 9.15918C37.2325 9.50355 36.6864 9.69049 36.1502 9.69049C35.1614 9.69049 34.5219 9.05095 34.5219 8.25399C34.5219 7.90471 34.7875 7.37832 35.4566 6.88637L35.6189 6.7683L37.7097 9.15918ZM35.9485 4.7759C35.5254 4.25443 35.2204 3.78708 35.2204 3.32464C35.2204 2.77858 35.6533 2.27187 36.2978 2.27187C36.9324 2.27187 37.3211 2.74414 37.3211 3.17706C37.3211 3.68869 37.0456 4.04781 36.5192 4.38726L35.9485 4.7759Z" fill="#09051C"/>
<path d="M54.4102 4.33314C54.1003 2.09477 52.3784 0.796017 50.145 0.796017C47.5131 0.796017 45.5305 2.71463 45.5305 5.97134C45.5305 9.22314 47.4885 11.1467 50.145 11.1467C52.5408 11.1467 54.1298 9.59702 54.4102 7.67349L52.5703 7.66365C52.3391 8.84433 51.3749 9.50847 50.1696 9.50847C48.5363 9.50847 47.3655 8.28351 47.3655 5.97134C47.3655 3.69853 48.5265 2.43421 50.1745 2.43421C51.3995 2.43421 52.3588 3.12786 52.5703 4.33314H54.4102Z" fill="#09051C"/>
<path d="M59.299 11.1565C61.5127 11.1565 62.9197 9.59702 62.9197 7.26025C62.9197 4.91857 61.5127 3.35416 59.299 3.35416C57.0852 3.35416 55.6782 4.91857 55.6782 7.26025C55.6782 9.59702 57.0852 11.1565 59.299 11.1565ZM59.3088 9.72985C58.0839 9.72985 57.4837 8.63771 57.4837 7.25533C57.4837 5.87295 58.0839 4.76606 59.3088 4.76606C60.5141 4.76606 61.1143 5.87295 61.1143 7.25533C61.1143 8.63771 60.5141 9.72985 59.3088 9.72985Z" fill="#09051C"/>
<path d="M66.2121 6.58136C66.2121 5.48923 66.8713 4.85953 67.8109 4.85953C68.7309 4.85953 69.2819 5.46463 69.2819 6.47313V11.0089H71.0627V6.19764C71.0677 4.38726 70.0346 3.35416 68.4751 3.35416C67.3436 3.35416 66.5663 3.89531 66.2219 4.73654H66.1334V3.45255H64.4312V11.0089H66.2121V6.58136Z" fill="#09051C"/>
<path d="M79.3521 3.45255H77.4581L75.7166 9.06571H75.6379L73.9013 3.45255H72.0024L74.6933 11.0089H76.6611L79.3521 3.45255Z" fill="#09051C"/>
<path d="M83.6727 11.1565C85.4339 11.1565 86.6441 10.2956 86.9589 8.98208L85.2961 8.79514C85.0551 9.43467 84.4647 9.7692 83.6973 9.7692C82.5461 9.7692 81.7836 9.0116 81.7688 7.71777H87.0327V7.1717C87.0327 4.52009 85.4388 3.35416 83.5792 3.35416C81.4146 3.35416 80.0027 4.94316 80.0027 7.27501C80.0027 9.64621 81.3949 11.1565 83.6727 11.1565ZM81.7737 6.51741C81.8279 5.55318 82.5412 4.74146 83.6038 4.74146C84.6271 4.74146 85.3158 5.48923 85.3256 6.51741H81.7737Z" fill="#09051C"/>
<path d="M90.3202 6.58136C90.3202 5.48923 90.9794 4.85953 91.919 4.85953C92.8389 4.85953 93.3899 5.46463 93.3899 6.47313V11.0089H95.1708V6.19764C95.1757 4.38726 94.1426 3.35416 92.5831 3.35416C91.4516 3.35416 90.6744 3.89531 90.33 4.73654H90.2414V3.45255H88.5393V11.0089H90.3202V6.58136Z" fill="#09051C"/>
<path d="M96.9812 11.0089H98.762V3.45255H96.9812V11.0089ZM97.8765 2.3801C98.4423 2.3801 98.9047 1.94718 98.9047 1.41587C98.9047 0.879648 98.4423 0.446732 97.8765 0.446732C97.3059 0.446732 96.8434 0.879648 96.8434 1.41587C96.8434 1.94718 97.3059 2.3801 97.8765 2.3801Z" fill="#09051C"/>
<path d="M103.939 11.1565C105.7 11.1565 106.91 10.2956 107.225 8.98208L105.562 8.79514C105.321 9.43467 104.731 9.7692 103.963 9.7692C102.812 9.7692 102.049 9.0116 102.035 7.71777H107.299V7.1717C107.299 4.52009 105.705 3.35416 103.845 3.35416C101.681 3.35416 100.269 4.94316 100.269 7.27501C100.269 9.64621 101.661 11.1565 103.939 11.1565ZM102.04 6.51741C102.094 5.55318 102.807 4.74146 103.87 4.74146C104.893 4.74146 105.582 5.48923 105.592 6.51741H102.04Z" fill="#09051C"/>
<path d="M110.586 6.58136C110.586 5.48923 111.245 4.85953 112.185 4.85953C113.105 4.85953 113.656 5.46463 113.656 6.47313V11.0089H115.437V6.19764C115.442 4.38726 114.409 3.35416 112.849 3.35416C111.718 3.35416 110.94 3.89531 110.596 4.73654H110.507V3.45255H108.805V11.0089H110.586V6.58136Z" fill="#09051C"/>
<path d="M121.02 3.45255H119.53V1.64217H117.749V3.45255H116.676V4.83001H117.749V9.03127C117.739 10.453 118.772 11.1516 120.11 11.1122C120.617 11.0975 120.966 10.9991 121.158 10.9351L120.858 9.5429C120.76 9.5675 120.558 9.61178 120.337 9.61178C119.889 9.61178 119.53 9.45435 119.53 8.7361V4.83001H121.02V3.45255Z" fill="#09051C"/>
<path d="M126.025 11.0089H127.85V6.72894H132.036V5.19898H127.85V2.46373H132.479V0.933763H126.025V11.0089Z" fill="#09051C"/>
<path d="M136.805 11.1565C139.018 11.1565 140.425 9.59702 140.425 7.26025C140.425 4.91857 139.018 3.35416 136.805 3.35416C134.591 3.35416 133.184 4.91857 133.184 7.26025C133.184 9.59702 134.591 11.1565 136.805 11.1565ZM136.814 9.72985C135.589 9.72985 134.989 8.63771 134.989 7.25533C134.989 5.87295 135.589 4.76606 136.814 4.76606C138.02 4.76606 138.62 5.87295 138.62 7.25533C138.62 8.63771 138.02 9.72985 136.814 9.72985Z" fill="#09051C"/>
<path d="M145.233 11.1565C147.447 11.1565 148.854 9.59702 148.854 7.26025C148.854 4.91857 147.447 3.35416 145.233 3.35416C143.019 3.35416 141.612 4.91857 141.612 7.26025C141.612 9.59702 143.019 11.1565 145.233 11.1565ZM145.243 9.72985C144.018 9.72985 143.418 8.63771 143.418 7.25533C143.418 5.87295 144.018 4.76606 145.243 4.76606C146.448 4.76606 147.048 5.87295 147.048 7.25533C147.048 8.63771 146.448 9.72985 145.243 9.72985Z" fill="#09051C"/>
<path d="M153.169 11.1417C154.468 11.1417 155.054 10.3694 155.334 9.8184H155.442V11.0089H157.193V0.933763H155.408V4.70211H155.334C155.063 4.15604 154.507 3.35416 153.174 3.35416C151.428 3.35416 150.055 4.72178 150.055 7.24057C150.055 9.72985 151.388 11.1417 153.169 11.1417ZM153.666 9.68065C152.49 9.68065 151.871 8.64755 151.871 7.23073C151.871 5.82375 152.481 4.81526 153.666 4.81526C154.812 4.81526 155.442 5.76472 155.442 7.23073C155.442 8.69675 154.803 9.68065 153.666 9.68065Z" fill="#09051C"/>
<path d="M171.609 5.97134C171.609 2.71463 169.621 0.796017 166.98 0.796017C164.333 0.796017 162.35 2.71463 162.35 5.97134C162.35 9.22314 164.333 11.1467 166.98 11.1467C169.621 11.1467 171.609 9.22806 171.609 5.97134ZM169.774 5.97134C169.774 8.26383 168.623 9.50847 166.98 9.50847C165.341 9.50847 164.185 8.26383 164.185 5.97134C164.185 3.67885 165.341 2.43421 166.98 2.43421C168.623 2.43421 169.774 3.67885 169.774 5.97134Z" fill="#09051C"/>
<path d="M173.256 11.0089H175.037V6.5666C175.037 5.6073 175.76 4.9284 176.739 4.9284C177.039 4.9284 177.413 4.98252 177.565 5.03171V3.39352C177.403 3.364 177.122 3.34432 176.926 3.34432C176.06 3.34432 175.337 3.83627 175.061 4.71195H174.982V3.45255H173.256V11.0089Z" fill="#09051C"/>
<path d="M181.241 11.1417C182.54 11.1417 183.125 10.3694 183.406 9.8184H183.514V11.0089H185.265V0.933763H183.48V4.70211H183.406C183.135 4.15604 182.579 3.35416 181.246 3.35416C179.5 3.35416 178.127 4.72178 178.127 7.24057C178.127 9.72985 179.46 11.1417 181.241 11.1417ZM181.738 9.68065C180.562 9.68065 179.943 8.64755 179.943 7.23073C179.943 5.82375 180.553 4.81526 181.738 4.81526C182.884 4.81526 183.514 5.76472 183.514 7.23073C183.514 8.69675 182.875 9.68065 181.738 9.68065Z" fill="#09051C"/>
<path d="M190.508 11.1565C192.27 11.1565 193.48 10.2956 193.795 8.98208L192.132 8.79514C191.891 9.43467 191.3 9.7692 190.533 9.7692C189.382 9.7692 188.619 9.0116 188.605 7.71777H193.868V7.1717C193.868 4.52009 192.275 3.35416 190.415 3.35416C188.25 3.35416 186.838 4.94316 186.838 7.27501C186.838 9.64621 188.231 11.1565 190.508 11.1565ZM188.609 6.51741C188.664 5.55318 189.377 4.74146 190.44 4.74146C191.463 4.74146 192.152 5.48923 192.161 6.51741H188.609Z" fill="#09051C"/>
<path d="M195.375 11.0089H197.156V6.5666C197.156 5.6073 197.879 4.9284 198.858 4.9284C199.158 4.9284 199.532 4.98252 199.685 5.03171V3.39352C199.522 3.364 199.242 3.34432 199.045 3.34432C198.179 3.34432 197.456 3.83627 197.18 4.71195H197.102V3.45255H195.375V11.0089Z" fill="#09051C"/>
<path d="M200.868 11.0089H202.649V3.45255H200.868V11.0089ZM201.763 2.3801C202.329 2.3801 202.791 1.94718 202.791 1.41587C202.791 0.879648 202.329 0.446732 201.763 0.446732C201.192 0.446732 200.73 0.879648 200.73 1.41587C200.73 1.94718 201.192 2.3801 201.763 2.3801Z" fill="#09051C"/>
<path d="M206.261 6.58136C206.261 5.48923 206.92 4.85953 207.86 4.85953C208.779 4.85953 209.33 5.46463 209.33 6.47313V11.0089H211.111V6.19764C211.116 4.38726 210.083 3.35416 208.524 3.35416C207.392 3.35416 206.615 3.89531 206.271 4.73654H206.182V3.45255H204.48V11.0089H206.261V6.58136Z" fill="#09051C"/>
<path d="M216.208 14C218.25 14 219.755 13.0653 219.755 11.1319V3.45255H217.999V4.70211H217.9C217.63 4.15604 217.064 3.35416 215.731 3.35416C213.984 3.35416 212.612 4.72179 212.612 7.20614C212.612 9.67081 213.984 10.9007 215.726 10.9007C217.02 10.9007 217.625 10.207 217.9 9.65113H217.989V11.0827C217.989 12.1945 217.251 12.652 216.237 12.652C215.165 12.652 214.693 12.1453 214.476 11.7026L212.872 12.0912C213.197 13.1489 214.284 14 216.208 14ZM216.223 9.50355C215.047 9.50355 214.427 8.58852 214.427 7.1963C214.427 5.82375 215.037 4.81526 216.223 4.81526C217.369 4.81526 217.999 5.76472 217.999 7.1963C217.999 8.63771 217.359 9.50355 216.223 9.50355Z" fill="#09051C"/>
</svg>
